<svg xmlns="http://www.w3.org/2000/svg" xmlns:xlink="http://www.w3.org/1999/xlink" width="204.083" height="69.97" viewBox="0 0 204.083 69.97"><defs><style>.a{fill:#fff;font-size:33px;font-family:CeraPro-Black, Cera Pro;font-weight:800;}.b{fill:#f3f3f3;}.c{fill:url(#a);}.d{fill:url(#b);}</style><linearGradient id="a" x1="0.711" x2="0.221" y2="3.17" gradientUnits="objectBoundingBox"><stop offset="0" stop-color="#06e3a8"/><stop offset="0.462" stop-color="#5a3366"/><stop offset="1" stop-color="#3e214b"/></linearGradient><linearGradient id="b" x1="1" x2="-0.387" y2="1.478" gradientUnits="objectBoundingBox"><stop offset="0" stop-color="#06e3a8"/><stop offset="0.621" stop-color="#5a3366"/><stop offset="1" stop-color="#3e214b"/></linearGradient></defs><g transform="translate(-79.459 -23)"><text class="a" transform="translate(136.542 70.715)"><tspan x="0" y="0">kedaddle</tspan></text><g transform="translate(79.459 23)"><path class="b" d="M216.757,485.276,185.187,511l-.405-.359c4.816-6.35,10.036-12.441,14.319-19.134,3.376-5.276,7.385-7.764,13.548-6.875a23.055,23.055,0,0,0,3.949-.091Z" transform="translate(-184.782 -441.03)"/><path class="b" d="M306.8,354.323c3.912-3.258,6.839-7.908,12.829-7.109.989.132,2.194-1.369,3.3-2.115-1.181-.782-2.333-2.185-3.548-2.241-5.767-.265-11.559.011-17.326-.241-5.734-.25-8.722-3.442-8.474-8.481.168-3.407,1.767-5.878,4.992-7a31.61,31.61,0,0,1,5.623-1.186,22.765,22.765,0,0,1,3.394-.075c9.277,0,18.553,0,27.888,0-1.9,5.539-4.179,7.206-9.649,7.205q-9.518,0-19.037,0a5.544,5.544,0,0,0-2.347.1,14.692,14.692,0,0,0-2.549,2.125c.888.675,1.754,1.9,2.667,1.935,4.978.2,9.968.08,14.953.144a28.212,28.212,0,0,1,5.058.435c4.482.882,6.445,3.015,6.609,6.918.194,4.577-1.636,7.729-5.928,8.7-3.372.765-6.944.7-10.434.86C312.152,354.422,309.473,354.323,306.8,354.323Z" transform="translate(-278.994 -303.665)"/><path class="c" d="M255.607,215.886c8.589-2.942,17.136-6.012,25.811-8.692,1.309-.405,3.783.542,4.729,1.657,2.528,2.978,4.519,6.388,7.319,10.5-4.221,0-7.557.18-10.848-.109a3.776,3.776,0,0,1-2.663-2.3c-.614-2.832-2.338-3.183-4.789-2.847-6.436.88-12.881,1.7-19.322,2.542Z" transform="translate(-246.121 -200.822)"/><path class="d" d="M538.607,178.329a9.048,9.048,0,1,1-.455-18.09,9.048,9.048,0,0,1,.455,18.09Z" transform="translate(-483.141 -160.235)"/></g></g></svg>